<svg width="24" height="24" viewBox="0 0 24 24" fill="none" xmlns="http://www.w3.org/2000/svg">
<path fill-rule="evenodd" clip-rule="evenodd" d="M23.8229 20.0144C23.2428 18.4684 22.3533 17.0573 21.209 15.8674C20.0647 14.6776 18.6896 13.7342 17.1681 13.095C17.9955 12.4149 18.6637 11.5614 19.1255 10.5946C19.5873 9.62786 19.8314 8.57143 19.8406 7.49995C19.8107 5.62213 19.0864 3.82204 17.8078 2.44739C16.5292 1.07274 14.7869 0.22107 12.9175 0.0569499C12.3053 -0.0189833 11.6861 -0.0189833 11.074 0.0569499C9.20563 0.222472 7.46476 1.07476 6.18738 2.44927C4.90999 3.82377 4.18661 5.62307 4.15687 7.49995C4.16576 8.57149 4.40973 9.62799 4.87152 10.5948C5.3333 11.5616 6.00165 12.4151 6.8293 13.095C5.30747 13.7339 3.93208 14.6772 2.78749 15.8671C1.6429 17.0569 0.753225 18.4682 0.173016 20.0144C0.00934984 20.4665 -0.0392364 20.9523 0.0316782 21.4278C0.102593 21.9034 0.290769 22.3539 0.579191 22.7384C0.878488 23.1334 1.26572 23.4531 1.71012 23.6721C2.15452 23.8911 2.64385 24.0034 3.13919 23.9999H20.8687C21.3636 24.0032 21.8525 23.8909 22.2964 23.6719C22.7403 23.4529 23.127 23.1333 23.4257 22.7384C23.7134 22.3534 23.9004 21.9026 23.9698 21.4269C24.0391 20.9512 23.9886 20.4656 23.8229 20.0144ZM7.29393 7.49995C7.31465 6.36259 7.75881 5.27392 8.53948 4.44713C9.32016 3.62033 10.3811 3.11495 11.5146 3.02994C11.8376 2.98993 12.1643 2.98993 12.4873 3.02994C13.3398 3.16074 14.1369 3.53344 14.7842 4.1038C15.4315 4.67417 15.9018 5.41831 16.1393 6.24801C16.3769 7.07772 16.3718 7.95819 16.1246 8.78507C15.8774 9.61195 15.3984 10.3506 14.7446 10.9133C14.0907 11.4761 13.2893 11.8395 12.4354 11.9603C11.5815 12.0812 10.7108 11.9545 9.92665 11.5952C9.14249 11.236 8.47772 10.6593 8.01109 9.93342C7.54446 9.20757 7.29558 8.36304 7.29393 7.49995ZM3.13617 20.9999C3.84649 19.2285 5.07042 17.7105 6.65031 16.6413C8.23021 15.5722 10.0938 15.0008 12.001 15.0008C13.9082 15.0008 15.7717 15.5722 17.3516 16.6413C18.9315 17.7105 20.1554 19.2285 20.8657 20.9999H3.13919H3.13617Z" fill="#22262A"/>
</svg>
