<svg width="25" height="25" viewBox="0 0 25 25" fill="none" xmlns="http://www.w3.org/2000/svg">
<path d="M9.22974 21.3647C9.5404 21.3647 9.79224 21.1129 9.79224 20.8022C9.79224 20.4916 9.5404 20.2397 9.22974 20.2397C8.91908 20.2397 8.66724 20.4916 8.66724 20.8022C8.66724 21.1129 8.91908 21.3647 9.22974 21.3647Z" fill="#22262A" stroke="#22262A" stroke-width="2" stroke-miterlimit="10" stroke-linecap="round" stroke-linejoin="round"/>
<path d="M17.1047 21.3647C17.4154 21.3647 17.6672 21.1129 17.6672 20.8022C17.6672 20.4916 17.4154 20.2397 17.1047 20.2397C16.7941 20.2397 16.5422 20.4916 16.5422 20.8022C16.5422 21.1129 16.7941 21.3647 17.1047 21.3647Z" fill="#22262A" stroke="#22262A" stroke-width="2" stroke-miterlimit="10" stroke-linecap="round" stroke-linejoin="round"/>
<path d="M3.04224 3.36475H5.29224L7.54224 16.8647H18.7922L21.0422 6.73975H6.41724" stroke="#22262A" stroke-width="2" stroke-linecap="round" stroke-linejoin="round"/>
</svg>
