<svg width="25" height="21" viewBox="0 0 25 21" fill="none" xmlns="http://www.w3.org/2000/svg">
<path d="M18.0804 0C15.7757 0 13.7578 0.971479 12.5 2.61358C11.2422 0.971479 9.22433 0 6.91964 0C5.08507 0.00202691 3.32624 0.717297 2.029 1.98889C0.731764 3.26048 0.00206779 4.98455 0 6.78285C0 14.4409 11.5837 20.6396 12.077 20.8956C12.207 20.9641 12.3524 21 12.5 21C12.6476 21 12.793 20.9641 12.923 20.8956C13.4163 20.6396 25 14.4409 25 6.78285C24.9979 4.98455 24.2682 3.26048 22.971 1.98889C21.6738 0.717297 19.9149 0.00202691 18.0804 0ZM12.5 19.1233C10.4621 17.9592 1.78571 12.6566 1.78571 6.78285C1.78749 5.4487 2.32895 4.16969 3.29136 3.2263C4.25378 2.28291 5.55858 1.75215 6.91964 1.75041C9.0904 1.75041 10.9129 2.88381 11.6741 4.70423C11.7414 4.86476 11.8558 5.00205 12.0029 5.09868C12.1499 5.1953 12.323 5.24689 12.5 5.24689C12.677 5.24689 12.8501 5.1953 12.9971 5.09868C13.1442 5.00205 13.2586 4.86476 13.3259 4.70423C14.0871 2.88052 15.9096 1.75041 18.0804 1.75041C19.4414 1.75215 20.7462 2.28291 21.7086 3.2263C22.6711 4.16969 23.2125 5.4487 23.2143 6.78285C23.2143 12.6478 14.5357 17.9581 12.5 19.1233Z" fill="black"/>
</svg>
