<svg width="125" height="16" viewBox="0 0 125 16" fill="none" xmlns="http://www.w3.org/2000/svg">
<path d="M69.6422 6.37927L65.3907 9.90125L66.6415 15.6252L62.5105 12.1672L58.1135 15.4413L59.8123 9.78125L55.8462 6.0813L61.0267 6.04126L62.9733 0.480347L64.4765 6.11633L69.6422 6.37927Z" fill="#FFC600"/>
<path d="M42.191 6.37927L37.9395 9.90125L39.1903 15.6252L35.0593 12.1672L30.6623 15.4413L32.3611 9.78125L28.395 6.0813L33.5755 6.04126L35.5221 0.480347L37.0253 6.11633L42.191 6.37927Z" fill="#FFC600"/>
<path d="M14.7423 6.37927L10.4908 9.90125L11.7416 15.6252L7.61061 12.1672L3.21358 15.4413L4.91237 9.78125L0.946289 6.0813L6.12675 6.04126L8.07341 0.480347L9.5766 6.11633L14.7423 6.37927Z" fill="#FFC600"/>
<path d="M97.0919 6.37927L92.8405 9.90125L94.0912 15.6252L89.9603 12.1672L85.5632 15.4413L87.262 9.78125L83.2959 6.0813L88.4764 6.04126L90.423 0.480347L91.9262 6.11633L97.0919 6.37927Z" fill="#FFC600"/>
<path d="M124.543 6.37927L120.291 9.90125L121.542 15.6252L117.411 12.1672L113.014 15.4413L114.713 9.78125L110.747 6.0813L115.927 6.04126L117.874 0.480347L119.377 6.11633L124.543 6.37927Z" fill="#C1C8CE"/>
</svg>
