<svg width="22" height="22" viewBox="0 0 22 22" fill="none" xmlns="http://www.w3.org/2000/svg">
<path fill-rule="evenodd" clip-rule="evenodd" d="M20.7067 19.0825L14.3987 12.7455C15.5304 11.1394 16.0175 9.16673 15.7635 7.2184C15.5095 5.27008 14.533 3.48825 13.0273 2.22591C11.5217 0.963578 9.59677 0.312848 7.63401 0.40267C5.67125 0.492492 3.81385 1.31626 2.42978 2.71084C1.04572 4.10541 0.23596 5.96901 0.160986 7.93239C0.0860119 9.89578 0.751283 11.8157 2.02497 13.3118C3.29866 14.8079 5.08784 15.7709 7.03803 16.0102C8.98822 16.2494 10.9571 15.7474 12.5547 14.6035L18.8627 20.9415C18.984 21.0655 19.1288 21.1641 19.2886 21.2316C19.4485 21.2992 19.6201 21.3342 19.7936 21.3348C19.9671 21.3354 20.1389 21.3015 20.2992 21.2351C20.4595 21.1686 20.6049 21.071 20.7271 20.9479C20.8494 20.8248 20.9459 20.6786 21.0111 20.5178C21.0763 20.357 21.1089 20.1849 21.107 20.0114C21.1051 19.838 21.0687 19.6666 21 19.5073C20.9313 19.348 20.8316 19.2039 20.7067 19.0835V19.0825ZM8.01768 13.4405C6.97672 13.4463 5.95749 13.1428 5.08918 12.5687C4.22086 11.9945 3.54254 11.1755 3.1402 10.2155C2.73786 9.2554 2.62961 8.19746 2.82917 7.1758C3.02872 6.15414 3.52711 5.21475 4.26114 4.47664C4.99518 3.73854 5.93183 3.23495 6.95237 3.02975C7.97291 2.82454 9.03141 2.92697 9.99369 3.324C10.956 3.72102 11.7787 4.39478 12.3576 5.25991C12.9366 6.12504 13.2457 7.14252 13.2457 8.18349C13.2457 9.57273 12.6958 10.9055 11.7162 11.8906C10.7366 12.8756 9.40689 13.4328 8.01768 13.4405Z" fill="#22262A"/>
</svg>
